<svg xmlns="http://www.w3.org/2000/svg" width="1200" height="630" viewBox="0 0 1200 630">
  <defs><linearGradient id="g" x1="0" y1="0" x2="1" y2="1"><stop stop-color="#ff8a3d"/><stop offset=".5" stop-color="#8a4dff"/><stop offset="1" stop-color="#547cff"/></linearGradient><pattern id="grid" width="44" height="44" patternUnits="userSpaceOnUse"><path d="M44 0H0V44" fill="none" stroke="#fff" stroke-opacity=".055"/></pattern><radialGradient id="halo"><stop stop-color="#8a4dff" stop-opacity=".32"/><stop offset="1" stop-color="#8a4dff" stop-opacity="0"/></radialGradient></defs>
  <rect width="1200" height="630" fill="#07070a"/><rect width="1200" height="630" fill="url(#grid)"/><circle cx="870" cy="310" r="310" fill="url(#halo)"/>
  <text x="58" y="64" fill="#ff8a3d" font-family="Helvetica Neue,Arial,sans-serif" font-size="12" font-weight="700" letter-spacing="3">01 / DEX EXPERIENCE REDESIGN</text>
  <text x="55" y="277" fill="#f6f4ef" font-family="Helvetica Neue,Arial,sans-serif" font-size="146" font-weight="800" letter-spacing="-10">SWAP.</text>
  <text x="58" y="340" fill="#aaaab3" font-family="Helvetica Neue,Arial,sans-serif" font-size="18" letter-spacing="1">ON NEXUS</text>
  <g transform="translate(678 86)"><path d="M56 384C56 274 102 212 190 212S314 154 314 78" fill="none" stroke="#fff" stroke-opacity=".16" stroke-width="38" stroke-linecap="round"/><path d="M56 384C56 274 102 212 190 212S314 154 314 78" fill="none" stroke="url(#g)" stroke-width="12" stroke-linecap="round"/><circle cx="56" cy="384" r="18" fill="#ff8a3d"/><circle cx="190" cy="212" r="18" fill="#8a4dff"/><circle cx="314" cy="78" r="18" fill="#547cff"/><circle cx="190" cy="212" r="92" fill="none" stroke="#8a4dff" stroke-opacity=".35"/><circle cx="190" cy="212" r="138" fill="none" stroke="#8a4dff" stroke-opacity=".16"/></g>
  <g transform="translate(58 456)" font-family="Helvetica Neue,Arial,sans-serif" font-size="11" font-weight="700" letter-spacing="2"><text fill="#ff8a3d">REMOVE</text><text x="122" fill="#b9a2ff">MERGE</text><text x="228" fill="#b9a2ff">HIDE</text><text x="312" fill="#91a9ff">RELOCATE</text><path d="M0 28H430" stroke="url(#g)" stroke-width="2"/></g>
  <text x="58" y="579" fill="#747580" font-family="Helvetica Neue,Arial,sans-serif" font-size="11" letter-spacing="2">2025.06</text><text x="1142" y="579" text-anchor="end" fill="#747580" font-family="Helvetica Neue,Arial,sans-serif" font-size="11" letter-spacing="2">OPEN · CHOOSE · SWAP</text>
</svg>
