<svg xmlns="http://www.w3.org/2000/svg" width="1200" height="630" viewBox="0 0 1200 630">
  <defs><linearGradient id="ziniaoBlue" x1="0" y1="0" x2="1" y2="1"><stop stop-color="#07142f"/><stop offset=".55" stop-color="#0d2a6c"/><stop offset="1" stop-color="#3569fd"/></linearGradient><pattern id="ziniaoGrid" width="60" height="60" patternUnits="userSpaceOnUse"><path d="M60 0H0V60" fill="none" stroke="#fff" stroke-opacity=".07"/></pattern></defs>
  <rect width="1200" height="630" fill="url(#ziniaoBlue)"/><rect width="1200" height="630" fill="url(#ziniaoGrid)"/>
  <text x="62" y="61" fill="#9ec0ff" font-family="Helvetica Neue,Arial,sans-serif" font-size="12" font-weight="700" letter-spacing="3">CASE 05 · COMPLEX B2B PRODUCT SYSTEM</text>
  <text x="58" y="220" fill="#fff" font-family="PingFang SC,Helvetica Neue,Arial,sans-serif" font-size="82" font-weight="700">紫鸟浏览器</text>
  <text x="62" y="283" fill="#fff" fill-opacity=".7" font-family="PingFang SC,Helvetica Neue,Arial,sans-serif" font-size="20">把复杂业务，放进正确的位置。</text>
  <g transform="translate(62 370)" font-family="Helvetica Neue,Arial,sans-serif" font-size="11" font-weight="700" letter-spacing="2"><g><rect width="106" height="42" rx="21" fill="none" stroke="#9ec0ff"/><text x="53" y="26" text-anchor="middle" fill="#fff">STORE</text></g><g transform="translate(122)"><rect width="86" height="42" rx="21" fill="none" stroke="#9ec0ff"/><text x="43" y="26" text-anchor="middle" fill="#fff">IP</text></g><g transform="translate(224)"><rect width="126" height="42" rx="21" fill="none" stroke="#9ec0ff"/><text x="63" y="26" text-anchor="middle" fill="#fff">MEMBER</text></g><g transform="translate(366)"><rect width="136" height="42" rx="21" fill="none" stroke="#9ec0ff"/><text x="68" y="26" text-anchor="middle" fill="#fff">SECURITY</text></g></g>
  <g transform="translate(700 86)" font-family="Helvetica Neue,Arial,sans-serif">
    <rect x="0" y="0" width="430" height="458" rx="18" fill="#edf1f9" fill-opacity=".96"/>
    <rect x="0" y="0" width="430" height="58" rx="18" fill="#fff"/><circle cx="28" cy="29" r="6" fill="#ff6b61"/><circle cx="48" cy="29" r="6" fill="#ffc15a"/><circle cx="68" cy="29" r="6" fill="#51cc78"/>
    <rect x="22" y="82" width="88" height="348" rx="9" fill="#0d2a6c"/><text x="43" y="120" fill="#9ec0ff" font-size="10" font-weight="700" letter-spacing="2">SYSTEM</text>
    <g transform="translate(132 82)"><rect width="272" height="74" rx="10" fill="#fff"/><rect y="92" width="130" height="122" rx="10" fill="#fff"/><rect x="142" y="92" width="130" height="122" rx="10" fill="#fff"/><rect y="232" width="272" height="116" rx="10" fill="#fff"/><path d="M22 34H214M22 52H162M22 272H240M22 292H197M22 312H224" stroke="#cad4e9" stroke-width="8" stroke-linecap="round"/><rect x="19" y="112" width="92" height="82" rx="8" fill="#3569fd" fill-opacity=".14"/><rect x="160" y="112" width="92" height="82" rx="8" fill="#3569fd" fill-opacity=".25"/></g>
    <text x="23" y="474" fill="#07142f" font-size="11" font-weight="700" letter-spacing="2">ONE WORKSPACE / SCALABLE RULES</text>
  </g>
  <text x="62" y="581" fill="#9ec0ff" font-family="Helvetica Neue,Arial,sans-serif" font-size="12" letter-spacing="2">2021.03 · UI DESIGN</text>
</svg>
