<svg xmlns="http://www.w3.org/2000/svg" viewBox="0 0 72 72"><g transform="translate(0 0)" opacity="1"><g transform="translate(0 0)" opacity="1"><path d="M36,72 C55.88225,72 72,55.88225 72,36 C72,16.11775 55.88225,0 36,0 C16.11775,0 0,16.11775 0,36 C0,55.88225 16.11775,72 36,72 Z" fill="rgba(228,251,241,1)"  opacity="1"/></g><g transform="translate(19.285587310791016 21.857038497924805)" opacity="1"><path d="M33.42841,28.14909 C33.42841,28.14909 29.69379,28.14909 29.69379,28.14909 C28.76007,23.56902 25.72565,19.40532 21.29071,16.69887 C23.39142,14.61705 24.55865,12.11882 24.55865,9.20421 C24.55865,7.74693 24.32513,6.28966 23.62482,5.04051 C23.62482,4.83232 23.39142,4.62416 23.39142,4.41597 C23.39142,4.41597 23.39142,3.7914 23.39142,3.7914 C23.39142,2.95869 24.09174,2.33415 24.79193,2.33415 C24.79193,2.33415 25.25885,2.33415 25.25885,2.33415 C25.95917,2.54231 26.89276,3.16689 27.59283,4.62416 C27.59283,4.62416 27.59283,4.83232 27.59283,4.83232 C27.59283,4.83232 27.82635,5.45689 27.82635,5.45689 C27.82635,5.45689 27.59283,4.83232 27.59283,4.83232 C28.05975,6.08144 28.29315,7.53874 28.29315,8.78786 C28.29315,11.0779 27.59283,13.3679 26.65936,15.44978 C30.16071,19.19713 32.49469,23.56902 33.42841,28.14909 C33.42841,28.14909 33.42841,28.14909 33.42841,28.14909 Z" fill="rgba(19,191,125,1)"  opacity="1"/><g transform="translate(0 0)" opacity="1"><path d="M19.03047,17.0295 C20.05361,16.18855 21.07676,15.13735 21.69065,14.08614 C23.32767,11.14277 23.32767,7.56866 21.69065,4.62529 C20.05361,1.68192 17.18881,0 13.91475,0 C8.79903,0 4.91109,4.20481 4.91109,9.46085 C4.91109,12.19399 6.13886,14.9271 8.18515,16.81927 C3.88795,19.13192 0.81851,23.33675 0,28.38253 C0,28.38253 3.27406,28.38253 3.27406,28.38253 C4.2972,23.54697 8.38978,18.92168 13.5055,18.92168 C18.00732,18.92168 21.89528,23.33675 22.91841,28.38253 C22.91841,28.38253 26.19247,28.38253 26.19247,28.38253 C25.37396,23.54697 22.71378,19.55241 19.03047,17.0295 C19.03047,17.0295 19.03047,17.0295 19.03047,17.0295 Z M7.77589,9.2506 C7.77589,5.88676 10.43606,3.15363 13.5055,3.15363 C16.77955,3.15363 19.43973,5.88676 19.43973,9.2506 C19.43973,12.61447 16.77955,15.3476 13.71012,15.3476 C10.43607,15.3476 7.77589,12.61445 7.77589,9.2506 C7.77589,9.2506 7.77589,9.2506 7.77589,9.2506 Z" fill="rgba(19,191,125,1)"  fill-rule="evenodd"/></g></g></g></svg>